<svg width="34" height="34" viewBox="0 0 34 34" fill="none" xmlns="http://www.w3.org/2000/svg">
<path d="M11.8365 19.7671C11.5676 19.4152 11.107 19.0438 10.7675 18.7386L1.35482 10.3612C-0.259557 8.91612 0.0175001 8.83813 0.0189354 6.84315L0.0178903 2.29829C0.00975333 0.645361 0.217462 0.0847469 1.97327 0.000844641L30.981 0C33.5015 0.000211075 33.7159 0.307008 33.7174 2.61047L33.7176 7.03766C33.7171 7.84861 33.8939 8.76605 33.2493 9.37996C32.714 9.8897 32.1526 10.3813 31.6062 10.8807L28.5407 13.6772C26.6286 15.3888 24.7815 17.1936 22.851 18.8865C22.5409 19.1584 22.1379 19.4434 21.8943 19.7671C21.8706 20.1837 21.8928 20.8084 21.8931 21.2424L21.8943 24.1799L21.8959 28.3615C21.8963 31.5381 22.0161 31.2113 18.9302 32.2809L15.3663 33.5048C12.6052 34.4319 11.8355 34.2546 11.8356 31.2467L11.8365 19.7671ZM3.43148 3.38047V6.83323H30.3914V3.38047H3.43148ZM6.08194 10.1375C6.41164 10.3704 6.90683 10.8376 7.21806 11.1176L14.7423 17.8698C15.3603 18.4303 15.1691 18.8637 15.1692 19.696L15.1683 30.14C16.2841 29.8634 17.5337 29.3138 18.6588 28.9531V21.1985C18.658 20.5738 18.5776 18.7094 18.7536 18.2252C18.8815 17.8736 19.7294 17.2362 20.0117 16.9774L25.1403 12.3519C25.9569 11.617 26.7973 10.8977 27.5897 10.1375L8.4501 10.137C7.75134 10.1366 6.76023 10.1047 6.08194 10.1375Z" fill="white"/>
</svg>
